{
    "asset" : {
        "generator" : "Khronos glTF Blender I/O v3.4.49",
        "version" : "2.0"
    },
    "scene" : 0,
    "scenes" : [
        {
            "name" : "Scene",
            "nodes" : [
                2
            ]
        }
    ],
    "nodes" : [
        {
            "mesh" : 0,
            "name" : "Object_2",
            "scale" : [
                0.117074154317379,
                0.117074154317379,
                0.117074154317379
            ],
            "translation" : [
                1.3222782611846924,
                0.04156341776251793,
                -0.10164081305265427
            ]
        },
        {
            "children" : [
                0
            ],
            "name" : "Man.obj.cleaner.materialmerger.gles"
        },
        {
            "children" : [
                1
            ],
            "name" : "Sketchfab_model",
            "rotation" : [
                -0.70710688829422,
                0,
                0,
                0.7071066498756409
            ]
        }
    ],
    "materials" : [
        {
            "doubleSided" : true,
            "name" : "default",
            "pbrMetallicRoughness" : {
                "baseColorFactor" : [
                    0.592578649520874,
                    0.34983745217323303,
                    0.5708745121955872,
                    1
                ],
                "metallicFactor" : 0.6689241528511047,
                "roughnessFactor" : 0.6000000238418579
            }
        }
    ],
    "meshes" : [
        {
            "name" : "Object_0",
            "primitives" : [
                {
                    "attributes" : {
                        "POSITION" : 0,
                        "TEXCOORD_0" : 1,
                        "NORMAL" : 2
                    },
                    "indices" : 3,
                    "material" : 0
                }
            ]
        }
    ],
    "accessors" : [
        {
            "bufferView" : 0,
            "componentType" : 5126,
            "count" : 15366,
            "max" : [
                69.1901626586914,
                -2.610074996948242,
                163.79676818847656
            ],
            "min" : [
                -98.94002532958984,
                -38.398780822753906,
                -7.199933052062988
            ],
            "type" : "VEC3"
        },
        {
            "bufferView" : 1,
            "componentType" : 5126,
            "count" : 15366,
            "type" : "VEC2"
        },
        {
            "bufferView" : 2,
            "componentType" : 5126,
            "count" : 15366,
            "type" : "VEC3"
        },
        {
            "bufferView" : 3,
            "componentType" : 5123,
            "count" : 84684,
            "type" : "SCALAR"
        }
    ],
    "bufferViews" : [
        {
            "buffer" : 0,
            "byteLength" : 184392,
            "byteOffset" : 0,
            "target" : 34962
        },
        {
            "buffer" : 0,
            "byteLength" : 122928,
            "byteOffset" : 184392,
            "target" : 34962
        },
        {
            "buffer" : 0,
            "byteLength" : 184392,
            "byteOffset" : 307320,
            "target" : 34962
        },
        {
            "buffer" : 0,
            "byteLength" : 169368,
            "byteOffset" : 491712,
            "target" : 34963
        }
    ],
    "buffers" : [
        {
            "byteLength" : 661080,
            "uri" : "data:application/octet-stream;base64,"
        }
    ]
}
